<?xml version="1.0" standalone="no"?>
<!DOCTYPE svg PUBLIC "-//W3C//DTD SVG 1.1//EN" "http://www.w3.org/Graphics/SVG/1.1/DTD/svg11.dtd" >
<svg xmlns="http://www.w3.org/2000/svg">
<metadata>
Created by FontPrep 20130207 at Tue Feb  2 17:34:56 2016
 By Daniele Meli
Copyright (c) 1987, 1991, 1994, 1998 Adobe Systems Incorporated. All Rights Reserved.Univers is a trademark of Linotype-Hell AG and/or its subsidiaries.
</metadata>
<defs>
<font id="9cf9334243ebfff60246c6f6eaa9e164" horiz-adv-x='1024' >
  <font-face 
    font-family="UniversLT-Condensed"
    font-weight="400"
    font-stretch="normal"
    units-per-em="2048"
    panose-1="2 0 5 3 5 0 0 2 0 3"
    ascent="1638"
    descent="-410"
    x-height="1034"
    cap-height="1479"
    bbox="-340 -512 2048 2025"
    underline-thickness="102"
    underline-position="-153"
    unicode-range="U+0020-FB02"
  />
<missing-glyph horiz-adv-x="454" 
 />
    <glyph glyph-name=".notdef" horiz-adv-x="454" 
 />
    <glyph glyph-name=".null" horiz-adv-x="0" 
 />
    <glyph glyph-name="nonmarkingreturn" horiz-adv-x="681" 
 />
    <glyph glyph-name="space" unicode=" " horiz-adv-x="454" 
 />
    <glyph glyph-name="space" unicode="&#xa0;" horiz-adv-x="454" 
 />
    <glyph glyph-name="exclam" unicode="!" horiz-adv-x="681" 
d="M266 342l-37 1137h224l-41 -1137h-146zM438 0h-192v213h192v-213z" />
    <glyph glyph-name="quotedbl" unicode="&#x22;" horiz-adv-x="512" 
d="M72 1479h123v-424h-123v424zM317 1479h123v-424h-123v424z" />
    <glyph glyph-name="numbersign" unicode="#" horiz-adv-x="909" 
d="M197 479h-203l35 115h202l72 233h-207l35 115h205l149 479h105l-150 -479h168l146 479h106l-147 -479h209l-35 -115h-209l-72 -233h211l-35 -115h-211l-147 -479h-105l148 479h-164l-151 -479h-105zM502 594l71 233h-165l-70 -233h164z" />
    <glyph glyph-name="dollar" unicode="$" horiz-adv-x="909" 
d="M498 -152h-88v121q-195 0 -284 97t-108 210t-8 156h193q0 -194 74.5 -244.5t132.5 -54.5v516q-66 33 -131.5 69t-117.5 83t-84 109.5t-32 191t105.5 235.5t259.5 107v121h88v-121q401 0 401 -418h-207q2 113 -40 180.5t-154 73.5v-473q70 -33 236.5 -117t166.5 -328
q0 -195 -124 -294t-279 -99v-121zM709 350q0 92 -62 151t-149 103v-471q92 10 151.5 67.5t59.5 149.5zM238 1079q0 -86 49 -137t123 -90v428q-76 -10 -124 -62.5t-48 -138.5z" />
    <glyph glyph-name="percent" unicode="%" horiz-adv-x="1593" 
d="M443 1509q130 0 177.5 -105.5t47.5 -290.5t-32 -252.5t-85 -100.5t-183 -33t-177.5 101t-47.5 285q0 185 32 256t85 105.5t183 34.5zM1223 752q129 0 177 -104.5t48 -292.5q0 -187 -32 -253.5t-85 -99.5t-183 -33t-177 99.5t-47 286.5t31.5 257t85 105t182.5 35zM508 -74
h-129l698 1626h133zM405.5 1395q-45.5 0 -69 -17.5t-34.5 -51.5t-13 -86t-2 -121.5t2 -122t13 -86t34.5 -51t69 -17.5t69 17.5t34.5 51t13 86t2 122t-2 121.5t-13 86t-34.5 51.5t-69 17.5zM1186 637q-45 0 -68.5 -17.5t-35 -51t-13.5 -86t-2 -122t2 -122t13.5 -86t35 -51
t68.5 -17.5t68.5 17.5t34.5 51t13.5 86t2.5 122t-2.5 122t-13.5 86t-34.5 51t-68.5 17.5z" />
    <glyph glyph-name="ampersand" unicode="&#x26;" horiz-adv-x="1366" 
d="M1024 586v284h168q0 -332 -35 -424t-55 -129l237 -317h-213l-118 152q-84 -102 -182 -142.5t-214 -40.5q-229 0 -365 109t-136 315q0 164 79 256.5t248 194.5q-194 218 -194 371t104 223.5t301 70.5t251 -110.5t54 -188.5q0 -190 -247 -393l288 -366q29 107 29 135z
M387 202.5q84 -75.5 202 -75.5q117 0 189 33t129 114l-364 461q-121 -82 -180.5 -152t-59.5 -187q0 -118 84 -193.5zM762 1200q0 78 -43 122t-117 44t-120 -46t-46 -102t17.5 -91t43 -69t53.5 -64.5t48 -59.5q164 140 164 266z" />
    <glyph glyph-name="quotesingle" unicode="'" horiz-adv-x="512" 
d="M195 1479h122v-424h-122v424z" />
    <glyph glyph-name="parenleft" unicode="(" horiz-adv-x="569" 
d="M432 1548q-137 -541 -137 -908q0 -228 39 -446.5t90 -435.5h-119q-35 109 -70.5 217.5t-64.5 219t-48.5 222t-19.5 228.5q0 201 50 388t155 515h125z" />
    <glyph glyph-name="parenright" unicode=")" horiz-adv-x="569" 
d="M274 635q0 382 -137 913h125q35 -111 120 -374.5t85 -535.5t-85 -521.5t-118 -358.5h-119q51 217 90 435.5t39 441.5z" />
    <glyph glyph-name="asterisk" unicode="*" horiz-adv-x="909" 
d="M524 1100l187 -266l-119 -66l-137 295l-138 -295l-118 66l186 266l-319 -31v135l319 -24l-184 260l121 69l133 -290l133 290l121 -69l-185 -260l320 24v-135z" />
    <glyph glyph-name="plus" unicode="+" 
d="M449 1034h126v-452h361v-127h-361v-455h-126v455h-361v127h361v452z" />
    <glyph glyph-name="comma" unicode="," horiz-adv-x="454" 
d="M176 213h211l-186 -473h-131z" />
    <glyph glyph-name="hyphen" unicode="-" horiz-adv-x="681" 
d="M115 637h450v-158h-450v158z" />
    <glyph glyph-name="hyphen" unicode="&#xad;" horiz-adv-x="681" 
d="M115 637h450v-158h-450v158z" />
    <glyph glyph-name="period" unicode="." horiz-adv-x="454" 
d="M324 0h-193v213h193v-213z" />
    <glyph glyph-name="slash" unicode="/" horiz-adv-x="569" 
d="M88 -197h-137l481 1676h137z" />
    <glyph glyph-name="zero" unicode="0" horiz-adv-x="909" 
d="M454.5 1444q145.5 0 223.5 -61.5t113.5 -165t41 -236.5t5.5 -274t-6.5 -273.5t-62 -298.5t-315.5 -166q-261 0 -318.5 176.5t-60.5 321.5t-3 263t5 251t40 236.5t113.5 165t224 61.5zM454.5 1286q-71.5 0 -111.5 -43t-58.5 -123t-21.5 -195t-3 -231t1 -211.5t17.5 -174.5
t57.5 -130t118.5 -51t117.5 51t57.5 130t18.5 174.5t1 211.5t-3 231t-21.5 195t-58.5 123t-111.5 43z" />
    <glyph glyph-name="one" unicode="1" horiz-adv-x="909" 
d="M592 1421v-1421h-189v1214l-213 -143v180q71 31 240 170h162z" />
    <glyph glyph-name="two" unicode="2" horiz-adv-x="909" 
d="M627 1098q0 188 -176 188q-95 0 -130.5 -60.5t-35.5 -170.5h-193q-12 178 75 283.5t275 105.5t280.5 -90t92.5 -293t-95.5 -339.5t-217 -286.5t-213.5 -271h563v-164h-764v164q156 217 259.5 356t165.5 236.5t88 173.5t26 168z" />
    <glyph glyph-name="three" unicode="3" horiz-adv-x="909" 
d="M433 127q218 0 218 236q0 106 -16.5 160.5t-67 96.5t-221.5 42v165q129 -12 210 45t81 191q0 98 -46 160.5t-150 62.5t-141.5 -60t-37.5 -171h-188q-10 182 79 285.5t279 103.5q393 0 393 -369q0 -171 -76.5 -232t-125 -75t-78.5 -23v-4q168 -23 231.5 -112.5
t63.5 -249.5q0 -410 -422 -410q-180 0 -273.5 91.5t-93.5 136.5v194h189q0 -124 27.5 -172.5t65.5 -70t100 -21.5z" />
    <glyph glyph-name="four" unicode="4" horiz-adv-x="909" 
d="M51 346v164l402 911h249v-911h168v-164h-168v-346h-176v346h-475zM526 510v739h-4l-307 -739h311z" />
    <glyph glyph-name="five" unicode="5" horiz-adv-x="909" 
d="M784 1421v-164h-475v-413l4 -4q23 47 88.5 76.5t137.5 29.5q154 0 225.5 -115.5t71.5 -351.5t-74.5 -373t-310.5 -137q-291 0 -321 140.5t-30 212.5h189q0 -96 41 -156t118 -60t114.5 30t61 87t23.5 166q0 221 -31.5 310t-150.5 89q-78 0 -120 -47t-54 -118h-170v798h663
z" />
    <glyph glyph-name="six" unicode="6" horiz-adv-x="909" 
d="M495 926q341 0 341 -477q0 -331 -137.5 -405.5t-237.5 -74.5t-166 29t-125.5 99.5t-77.5 217.5t-18 340t5 326t40 236.5t113.5 165t233.5 61.5t251 -93.5t92 -252.5h-188q0 78 -31 125t-61.5 65.5t-80.5 18.5q-107 0 -146.5 -113t-39.5 -401h4q35 61 96.5 97t132.5 36z
M456.5 768q-190.5 0 -190.5 -320t196 -321q112 0 148.5 93t36.5 261q0 287 -190.5 287z" />
    <glyph glyph-name="seven" unicode="7" horiz-adv-x="909" 
d="M61 1421h736v-164l-379 -1257h-213l397 1257h-541v164z" />
    <glyph glyph-name="eight" unicode="8" horiz-adv-x="909" 
d="M834 383q0 -193 -96.5 -303.5t-283 -110.5t-282.5 110.5t-96 287.5t58.5 272.5t203.5 112.5v2q-180 34 -214 153t-34 180q0 168 98.5 262.5t266.5 94.5t266 -94.5t98 -262.5q0 -123 -63 -216.5t-185 -116.5v-2q263 -27 263 -369zM454.5 127q53.5 0 89.5 22.5t58.5 58.5
t32.5 81t10 92t-5 98t-24.5 94t-57.5 71t-103.5 28t-103.5 -28t-57.5 -71t-24.5 -94t-5 -98t10.5 -92t33 -81t58 -58.5t89 -22.5zM454.5 836q53.5 0 87 25.5t54 64.5t28 84t7.5 84t-10.5 77.5t-32 68.5t-55 48.5t-78.5 18.5t-79 -18.5t-55.5 -48.5t-31.5 -68.5t-10 -77.5
t7 -84t27.5 -84t54 -64.5t87 -25.5z" />
    <glyph glyph-name="nine" unicode="9" horiz-adv-x="909" 
d="M399 559q-208 0 -266.5 151.5t-58.5 283.5q0 237 110.5 343.5t261.5 106.5q152 0 230 -61.5t113.5 -165t41 -236.5t5.5 -274t-6.5 -273.5t-62 -298.5t-314.5 -166q-159 0 -257 102t-94 269h189q0 -143 58.5 -178t114.5 -35q113 0 148 127t35 438h-4q-63 -133 -244 -133z
M643 1012q0 295 -190.5 295t-190.5 -295q0 -128 26.5 -185t64.5 -83.5t125 -26.5t126 83.5t39 211.5z" />
    <glyph glyph-name="colon" unicode=":" horiz-adv-x="454" 
d="M324 821h-193v213h193v-213zM324 0h-193v213h193v-213z" />
    <glyph glyph-name="semicolon" unicode=";" horiz-adv-x="454" 
d="M176 213h211l-186 -473h-131zM324 821h-193v213h193v-213z" />
    <glyph glyph-name="less" unicode="&#x3c;" 
d="M940 123v-150l-854 480v131l854 471v-150l-694 -387z" />
    <glyph glyph-name="equal" unicode="=" 
d="M936 659h-848v127h848v-127zM936 256h-848v127h848v-127z" />
    <glyph glyph-name="greater" unicode="&#x3e;" 
d="M778 518l-694 387v150l854 -471v-131l-854 -480v150z" />
    <glyph glyph-name="question" unicode="?" horiz-adv-x="909" 
d="M471 1509q160 0 247 -93t87 -249q0 -203 -111.5 -339.5t-136.5 -180t-25 -82.5v-190h-167v233q0 68 38.5 126.5t85 123t85 139t38.5 162.5t-27.5 132t-56 62.5t-76.5 18.5q-89 0 -117 -78t-28 -207h-192q-18 422 356 422zM545 0h-193v213h193v-213z" />
    <glyph glyph-name="at" unicode="@" horiz-adv-x="1613" 
d="M1047 449q0 -54 61 -54q47 0 106.5 31t147.5 133.5t88 321.5q0 164 -96 295.5t-243 175t-287 43.5t-260 -51.5t-209 -140.5t-140 -209t-51 -256t51 -254.5t140 -208t209 -140.5t282 -51t313.5 68.5t243.5 203.5h123q-97 -178 -287 -282.5t-418 -104.5q-160 0 -300 60.5
t-245.5 165t-166 245t-60.5 300.5t60.5 301t166 244.5t246 163.5t306.5 60t288.5 -41t234 -124t163 -230t51.5 -233q0 -174 -54.5 -290t-131 -184.5t-159 -97t-138.5 -28.5t-109 25.5t-72 82.5q-47 -49 -113.5 -76.5t-164 -27.5t-176 90t-78.5 207q0 116 36.5 227t104.5 202
t162 150.5t188 59.5q188 0 254 -138l29 97h141l-211 -625q-26 -75 -26 -106zM875 1098q-74 0 -139.5 -50.5t-137.5 -168.5t-72 -275q0 -79 42.5 -137.5t109.5 -58.5t116.5 33.5t101.5 106.5t92 203t40 193t-39.5 108.5t-113.5 45.5z" />
    <glyph glyph-name="A" unicode="A" horiz-adv-x="1251" 
d="M500 1479h239l482 -1479h-211l-107 352h-571l-111 -352h-190zM614 1305h-4l-231 -789h473z" />
    <glyph glyph-name="B" unicode="B" horiz-adv-x="1251" 
d="M801 770q303 -34 303 -348q0 -422 -445 -422h-475v1479h482q197 0 293 -103.5t96 -244.5q0 -140 -55.5 -229t-198.5 -122v-10zM373 164h266q134 0 203 77t69 170q0 167 -85.5 224t-252.5 57h-200v-528zM373 856h274q111 2 165 65t54 163t-54 165.5t-173 65.5h-266v-459z
" />
    <glyph glyph-name="C" unicode="C" horiz-adv-x="1138" 
d="M342 928v-396q0 -351 104 -378t142 -27q97 0 174.5 62.5t77.5 246.5h194q6 -372 -186.5 -427.5t-379 -28.5t-252.5 193.5t-66 381.5v418q0 430 183 483t292 53q219 0 310 -111.5t77 -326.5h-195q6 201 -70.5 240t-156.5 39t-139 -43t-66 -72q-2 -6 -22.5 -45.5
t-20.5 -261.5z" />
    <glyph glyph-name="D" unicode="D" horiz-adv-x="1251" 
d="M170 1479h455q293 0 397 -226q65 -133 65 -419t-21.5 -428t-68.5 -216q-59 -96 -175.5 -143t-311.5 -47h-340v1479zM358 164h179q201 0 279.5 95t78.5 347v299q0 223 -70.5 316.5t-218.5 93.5h-248v-1151z" />
    <glyph glyph-name="E" unicode="E" 
d="M166 0v1479h762v-164h-574v-475h533v-164h-533v-512h586v-164h-774z" />
    <glyph glyph-name="F" unicode="F" horiz-adv-x="909" 
d="M152 0v1479h733v-164h-545v-475h516v-164h-516v-676h-188z" />
    <glyph glyph-name="G" unicode="G" horiz-adv-x="1251" 
d="M147 541v485q0 221 114.5 352t352.5 131t351.5 -97t105.5 -329h-197q0 131 -59 200t-213 69t-208 -101.5t-54 -218.5v-500q0 -334 103 -369.5t187 -35.5t151 21.5t96 44.5v442h-273v164h461v-719q-208 -111 -449 -111q-240 0 -354.5 132t-114.5 440z" />
    <glyph glyph-name="H" unicode="H" horiz-adv-x="1251" 
d="M178 0v1479h189v-639h518v639h188v-1479h-188v676h-518v-676h-189z" />
    <glyph glyph-name="I" unicode="I" horiz-adv-x="569" 
d="M379 0h-189v1479h189v-1479z" />
    <glyph glyph-name="J" unicode="J" 
d="M611.5 217.5q39.5 90.5 39.5 261.5v1000h189v-1112q0 -295 -154 -346.5t-220 -51.5q-372 0 -388.5 200t-16.5 290h197q2 -49 3 -107.5t26.5 -141.5t155.5 -83q129 0 168.5 90.5z" />
    <glyph glyph-name="K" unicode="K" horiz-adv-x="1138" 
d="M166 0v1479h188v-650h6l517 650h213l-537 -668l567 -811h-241l-519 772h-6v-772h-188z" />
    <glyph glyph-name="L" unicode="L" horiz-adv-x="909" 
d="M166 0v1479h188v-1315h543v-164h-731z" />
    <glyph glyph-name="M" unicode="M" horiz-adv-x="1705" 
d="M344 0h-176v1479h305l373 -1241h4l377 1241h311v-1479h-188v1315h-4l-414 -1315h-178l-406 1315h-4v-1315z" />
    <glyph glyph-name="N" unicode="N" horiz-adv-x="1366" 
d="M1190 1479v-1479h-258l-584 1282h-4v-1282h-168v1479h266l576 -1266h4v1266h168z" />
    <glyph glyph-name="O" unicode="O" horiz-adv-x="1251" 
d="M624.5 -31q-235.5 0 -350 132t-114.5 440v485q0 221 114.5 352t350 131t350.5 -131t115 -352v-485q0 -307 -115 -439.5t-350.5 -132.5zM662 127q105 0 170 87t65 318v500q0 201 -90 260.5t-182.5 59.5t-148.5 -37t-90 -101.5t-34 -181.5v-500q0 -333 102.5 -369
t207.5 -36z" />
    <glyph glyph-name="P" unicode="P" horiz-adv-x="1138" 
d="M190 0v1479h439q281 0 346 -145.5t65 -274.5q0 -227 -130.5 -317.5t-282.5 -90.5h-248v-651h-189zM379 815h207q162 0 212 83t50 168q0 145 -73 197t-136 52h-260v-500z" />
    <glyph glyph-name="Q" unicode="Q" horiz-adv-x="1251" 
d="M147 1026q0 221 115 352t350.5 131t350 -131t114.5 -352v-485q0 -105 -36 -241.5t-93 -164.5l4 -4q10 2 55 17.5t74 15.5h148v-164h-615q-138 0 -233.5 30t-164.5 147.5t-69 363.5v485zM829.5 244.5q55.5 92.5 55.5 287.5v500q0 201 -90 260.5t-182.5 59.5t-148.5 -37
t-90 -101.5t-34 -181.5v-500q0 -198 57.5 -289t216.5 -91q160 0 215.5 92.5z" />
    <glyph glyph-name="R" unicode="R" horiz-adv-x="1138" 
d="M350 680v-680h-188v1479h510q181 0 267.5 -107t86.5 -250t-69.5 -235t-200.5 -115v-4q63 -10 107 -28.5t85 -78t49 -274.5q0 -101 20.5 -226.5t31.5 -160.5h-197q-34 67 -40.5 170.5t-8.5 175.5t-8 143q-16 191 -224 191h-221zM350 844h283q97 0 149 71t52 175
q0 147 -72 186t-127 39h-285v-471z" />
    <glyph glyph-name="S" unicode="S" horiz-adv-x="1138" 
d="M311 440v-43q0 -140 73.5 -202t174.5 -62q186 0 225 87t39 161t-49 129t-122.5 100t-159.5 86t-160 96.5t-123 130.5t-49 179q0 198 120.5 302.5t318.5 104.5t305.5 -103t99.5 -329h-197q2 121 -46 195t-192 74t-180.5 -79t-36.5 -150t49.5 -125t123 -98t159.5 -86
t160 -97.5t123 -134t49 -245.5t-127 -264.5t-327 -99.5t-326.5 103.5t-110.5 369.5h186z" />
    <glyph glyph-name="T" unicode="T" 
d="M995 1479v-164h-389v-1315h-188v1315h-389v164h966z" />
    <glyph glyph-name="U" unicode="U" horiz-adv-x="1251" 
d="M160 1479h188v-947q0 -333 104.5 -369t210.5 -36t172 88t66 317v947h189v-938q0 -307 -115 -439.5t-350.5 -132.5t-350 132t-114.5 440v938z" />
    <glyph glyph-name="V" unicode="V" horiz-adv-x="1138" 
d="M680 0h-225l-428 1479h204l338 -1301h4l347 1301h192z" />
    <glyph glyph-name="W" unicode="W" horiz-adv-x="1820" 
d="M12 1479h201l279 -1282h4l297 1282h243l269 -1282h4l301 1282h196l-391 -1479h-229l-281 1282h-4l-299 -1282h-229z" />
    <glyph glyph-name="X" unicode="X" horiz-adv-x="1138" 
d="M1114 0h-227l-344 633l-326 -633h-205l426 766l-403 713h217l303 -574l307 574h207l-397 -713z" />
    <glyph glyph-name="Y" unicode="Y" 
d="M602 0h-188v563l-398 916h211l289 -715l299 715h191l-404 -916v-563z" />
    <glyph glyph-name="Z" unicode="Z" 
d="M973 164v-164h-924v213l717 1098v4h-692v164h882v-189l-733 -1126h750z" />
    <glyph glyph-name="bracketleft" unicode="[" horiz-adv-x="569" 
d="M143 -242v1790h340v-114h-172v-1561h178v-115h-346z" />
    <glyph glyph-name="backslash" unicode="\" horiz-adv-x="569" 
d="M-2 1479h137l434 -1510h-137z" />
    <glyph glyph-name="bracketright" unicode="]" horiz-adv-x="569" 
d="M80 -242v115h178v1561h-172v114h340v-1790h-346z" />
    <glyph glyph-name="asciicircum" unicode="^" 
d="M567 1421l320 -854h-154l-229 652h-4l-226 -652h-139l309 854h123z" />
    <glyph glyph-name="underscore" unicode="_" 
d="M0 -256v102h1024v-102h-1024z" />
    <glyph glyph-name="grave" unicode="`" horiz-adv-x="569" 
d="M264 1479l182 -289h-137l-268 289h223z" />
    <glyph glyph-name="a" unicode="a" 
d="M844 246q0 -128 20 -246h-184v150h-4q-39 -90 -100.5 -130t-151.5 -40q-162 0 -226.5 89t-64.5 228t51.5 205.5t151 105t340.5 33.5q5 136 -15 186t-56.5 75.5t-112.5 25.5t-118 -51.5t-34 -133.5h-182q6 174 95 243t255 69q269 0 302.5 -123t33.5 -189v-497zM301 310
q0 -79 39 -136t130 -57t154 86.5t52 310.5q-59 0 -126 -2t-122 -20.5t-91 -60.5t-36 -121z" />
    <glyph glyph-name="b" unicode="b" 
d="M556 1055q132 0 201.5 -50.5t102.5 -130t39 -179t6 -232.5t-28.5 -235.5t-90 -175t-215.5 -72.5q-82 0 -138 35.5t-99 107.5h-4v-123h-168v1479h168v-549h6q88 125 220 125zM330 555v-133q0 -172 55 -238.5t134 -66.5q135 0 172.5 102t37.5 243q0 262 -39.5 359
t-162.5 97t-160 -102.5t-37 -260.5z" />
    <glyph glyph-name="c" unicode="c" 
d="M688 702q6 216 -156 216q-94 0 -149 -72t-55 -304q0 -231 45 -328t172 -97q49 0 100.5 52.5t48.5 174.5h176q4 -193 -101.5 -278.5t-205.5 -85.5t-255.5 36.5t-155.5 485.5q0 113 11 214t74.5 220t307.5 119q156 0 240.5 -89t76.5 -264h-174z" />
    <glyph glyph-name="d" unicode="d" 
d="M690 123q-84 -143 -226 -143q-72 0 -133 17t-136.5 106t-75.5 397q0 96 6 195.5t39 179t102.5 130t201.5 50.5t220 -125h6v549h168v-1479h-168v123h-4zM657.5 815.5q-36.5 102.5 -161.5 102.5q-124 0 -162.5 -95t-38.5 -298q0 -204 23.5 -268t65.5 -102t117 -38t113.5 40
t59 114.5t20.5 257.5q0 184 -36.5 286.5z" />
    <glyph glyph-name="e" unicode="e" 
d="M311 463q0 -293 80 -319.5t126 -26.5q84 0 131.5 56t51.5 140h185q-2 -174 -99.5 -253.5t-261.5 -79.5q-82 0 -237.5 37t-155.5 485q0 271 74 412t319 141q213 0 291 -118.5t78 -385.5v-88h-582zM715 590q0 294 -81 316t-124 22q-95 0 -147 -72.5t-52 -265.5h404z" />
    <glyph glyph-name="f" unicode="f" horiz-adv-x="569" 
d="M474 1485q54 0 81 -6v-121q-178 10 -193.5 -53.5t-15.5 -94.5v-176h209v-127h-209v-907h-168v907h-160v127h160v201q0 142 80.5 196t215.5 54z" />
    <glyph glyph-name="g" unicode="g" 
d="M688 129q-70 -129 -246 -129q-86 0 -201.5 75.5t-115.5 431.5q0 220 39 321.5t104 164t181 62.5q173 0 241 -148h4v127h168v-1138q0 -236 -147.5 -261.5t-223.5 -25.5q-149 0 -241.5 70.5t-81.5 205.5h188q2 -72 45 -110.5t122 -38.5t125 49t46 129v215h-6zM301 512
q0 -373 189 -373q88 0 127.5 40t58 98.5t20.5 125t2 121.5q0 179 -31 285t-169 106q-177 0 -187 -157.5t-10 -245.5z" />
    <glyph glyph-name="h" unicode="h" 
d="M520 918q-206 0 -207 -310v-608h-168v1479h168v-578h9q51 90 114.5 122t181.5 32t188.5 -73t70.5 -249v-733h-168v700q0 157 -65.5 187.5t-123.5 30.5z" />
    <glyph glyph-name="i" unicode="i" horiz-adv-x="454" 
d="M311 0h-168v1034h168v-1034zM133 1479h189v-181h-189v181z" />
    <glyph glyph-name="j" unicode="j" horiz-adv-x="454" 
d="M143 1034h168v-1177q0 -132 -58.5 -190t-234.5 -58v143q94 0 109.5 32t15.5 64v1186zM133 1479h189v-181h-189v181z" />
    <glyph glyph-name="k" unicode="k" horiz-adv-x="909" 
d="M315 0h-168v1479h168v-891h4l316 446h205l-344 -444l405 -590h-213l-369 580h-4v-580z" />
    <glyph glyph-name="l" unicode="l" horiz-adv-x="454" 
d="M311 0h-168v1479h168v-1479z" />
    <glyph glyph-name="m" unicode="m" horiz-adv-x="1478" 
d="M811 922q71 133 231 133q131 0 214 -53t83 -216v-786h-168v717q0 94 -35.5 147.5t-127.5 53.5q-47 0 -71 -6.5t-49 -27.5q-65 -55 -65 -188v-696h-168v717q0 94 -35.5 147.5t-127.5 53.5q-39 0 -112 -34t-73 -188v-696h-168v819q0 82 -10 215h178v-129h4q37 84 101 117
t128 33q216 0 271 -133z" />
    <glyph glyph-name="n" unicode="n" 
d="M147 819q0 82 -10 215h178v-133h9q49 88 112.5 121t154.5 33q168 0 227 -87t59 -251v-717h-168v717q0 145 -64.5 173t-126.5 28q-203 0 -203 -306v-612h-168v819z" />
    <glyph glyph-name="o" unicode="o" 
d="M512 -20q-82 0 -237.5 37t-155.5 485q0 113 11 214t51 176t118 119t213 44t213 -44t118 -119t51 -176.5t11 -243.5t-30.5 -244.5t-84 -158t-125 -72.5t-153.5 -17zM512 117q127 0 172 97t45 370t-84 303.5t-162 30.5t-133 -73t-55 -304q0 -230 45 -327t172 -97z" />
    <glyph glyph-name="p" unicode="p" 
d="M334 911q86 144 226 144q72 0 133 -17.5t136.5 -106.5t75.5 -396q0 -96 -6 -195.5t-39 -179.5t-102.5 -130t-201.5 -50t-220 124h-6v-495h-168v1425h168v-123h4zM523 117q127 0 166.5 95.5t39.5 296.5t-23.5 267t-65.5 104t-121 38t-134 -67t-55 -243v-135
q0 -154 23.5 -218.5t62 -101t107.5 -36.5z" />
    <glyph glyph-name="q" unicode="q" 
d="M119 572q0 134 28.5 235.5t90.5 174.5t215 73q82 0 138 -36t99 -108h4v123h168v-1425h-168v495h-6q-87 -124 -220 -124q-132 0 -201.5 50t-102.5 130t-39 179t-6 233zM694 425v177q0 178 -55 244.5t-134 66.5q-137 0 -173.5 -102.5t-36.5 -240.5q0 -139 6 -217.5
t38.5 -157t156.5 -78.5q198 0 198 308z" />
    <glyph glyph-name="r" unicode="r" horiz-adv-x="681" 
d="M540 891q-112 0 -165 -78t-53 -203v-610h-168v1034h168v-155h4q51 112 117.5 144t201.5 32v-174q-50 10 -105 10z" />
    <glyph glyph-name="s" unicode="s" horiz-adv-x="909" 
d="M716 57q-97 -77 -264 -77t-263.5 78.5t-92.5 256.5h191q0 -79 31.5 -138.5t140.5 -59.5q76 0 127 39t51 118q0 45 -38 79t-95.5 63.5t-220 101.5t-162.5 253t124 232.5t213 51.5q166 0 262.5 -73.5t84.5 -219.5h-187q2 82 -39.5 124t-115.5 42t-120 -36t-46 -92t38 -89
t95 -61.5t125 -57.5t163 -95.5t95 -214.5t-97 -225z" />
    <glyph glyph-name="t" unicode="t" horiz-adv-x="569" 
d="M397 -12q-231 0 -231 184v735h-170v127h170v199l168 76v-275h225v-127h-225v-633q0 -71 26.5 -110t126.5 -39q20 0 76 8v-129q-41 -4 -83 -10t-83 -6z" />
    <glyph glyph-name="u" unicode="u" 
d="M432 -20q-278 0 -278 266v788h168v-717q0 -94 43 -151t133 -57q129 0 165.5 87t36.5 152v686h168v-819q0 -98 11 -215h-179v125h-6q-41 -72 -110.5 -108.5t-151.5 -36.5z" />
    <glyph glyph-name="v" unicode="v" horiz-adv-x="909" 
d="M29 1034h188l232 -876h4l249 876h177l-324 -1034h-219z" />
    <glyph glyph-name="w" unicode="w" horiz-adv-x="1478" 
d="M18 1034h187l186 -891h4l230 891h237l211 -891h4l205 891h178l-276 -1034h-226l-221 881h-4l-231 -881h-226z" />
    <glyph glyph-name="x" unicode="x" horiz-adv-x="909" 
d="M895 0h-221l-240 424l-223 -424h-199l322 541l-295 493h215l197 -370l208 370h203l-309 -493z" />
    <glyph glyph-name="y" unicode="y" horiz-adv-x="909" 
d="M459 193h4l248 841h182l-469 -1425h-174l117 391l-351 1034h195z" />
    <glyph glyph-name="z" unicode="z" horiz-adv-x="796" 
d="M725 137v-137h-653v158l450 735v4h-428v137h617v-153l-457 -744h471z" />
    <glyph glyph-name="braceleft" unicode="{" horiz-adv-x="561" 
d="M367 49q0 -94 38 -138t140 -44v-115q-201 -8 -273.5 60.5t-72.5 240.5v404q0 89 -38 113t-72 33t-75 26v114q86 18 135.5 49t49.5 109v381q0 186 95 225t154.5 40t96.5 1v-114q-111 0 -144.5 -48.5t-33.5 -136.5v-313q0 -106 -32 -149.5t-73 -65t-104 -33.5v-4
q177 -36 193 -131.5t16 -151.5v-352z" />
    <glyph glyph-name="bar" unicode="|" horiz-adv-x="512" 
d="M193 1536h126v-2048h-126v2048z" />
    <glyph glyph-name="braceright" unicode="}" horiz-adv-x="561" 
d="M193 401q0 124 29.5 170.5t70.5 72.5t108 40v4q-175 32 -191.5 115.5t-16.5 132.5v313q0 88 -34 136.5t-145 48.5v114q37 0 96.5 -1t154.5 -39.5t95 -225.5v-381q0 -78 49.5 -108.5t135.5 -49.5v-114q-41 -16 -75 -25.5t-72 -33.5t-38 -113v-404q0 -172 -72.5 -240.5
t-273.5 -60.5v115q106 0 142.5 49t36.5 133v352z" />
    <glyph glyph-name="asciitilde" unicode="~" 
d="M332 524q-59 0 -95 -46.5t-77 -137.5l-70 98q70 167 132.5 204.5t122 37.5t181.5 -72q51 -27 96.5 -49t75.5 -22q51 0 94.5 49.5t73.5 120.5l70 -97q-100 -227 -238 -227q-54 0 -130 40t-103 53t-62.5 30.5t-70.5 17.5z" />
    <glyph glyph-name="Euro" horiz-adv-x="909" 
d="M135 1016q1 438 361 438q370 0 370 -371h-182q0 205 -176 205q-98 0 -140 -66.5t-42 -185.5v-121h327l-22 -137h-307v-135h282l-22 -137h-258v-121q0 -129 44 -194.5t142 -65.5t138 48t40 159h178q0 -369 -360 -369q-375 0 -375 420v123h-119l23 137h94v135h-117l23 137
h98v101z" />
    <glyph glyph-name="Euro" unicode="&#x20ac;" horiz-adv-x="909" 
d="M135 1016q1 438 361 438q370 0 370 -371h-182q0 205 -176 205q-98 0 -140 -66.5t-42 -185.5v-121h327l-22 -137h-307v-135h282l-22 -137h-258v-121q0 -129 44 -194.5t142 -65.5t138 48t40 159h178q0 -369 -360 -369q-375 0 -375 420v123h-119l23 137h94v135h-117l23 137
h98v101z" />
    <glyph glyph-name="exclamdown" unicode="&#xa1;" horiz-adv-x="681" 
d="M416 745l37 -1136h-224l41 1136h146zM438 874h-192v213h192v-213z" />
    <glyph glyph-name="cent" unicode="&#xa2;" horiz-adv-x="909" 
d="M209 68q-115 124 -115 415t75 431.5t318 140.5q70 0 125 -19l54 129l71 -30l-53 -131q131 -84 121 -302h-174q0 89 -17 129l-272 -657q47 -59 145 -59q107 0 128.5 93t21.5 136h176q0 -165 -99 -266t-227 -101t-208 41l-58 -137l-76 33zM270 529q0 -151 23 -255h4
l258 625q-25 19 -71 19t-86 -14.5t-68.5 -52.5t-44 -104.5t-15.5 -217.5z" />
    <glyph glyph-name="sterling" unicode="&#xa3;" horiz-adv-x="909" 
d="M344 1030v-174h283v-164h-283v-528h533v-164h-873v164h152v528h-164v164h164v166q0 14 -2 51t8.5 119t93.5 167t264 85q182 0 278.5 -94.5t86.5 -274.5h-197q10 211 -162 211t-177 -105.5t-5 -150.5z" />
    <glyph glyph-name="currency" unicode="&#xa4;" horiz-adv-x="909" 
d="M-6 619q0 167 88 305l-80 88l96 108l80 -88q120 101 271 101t282 -101l82 88l96 -108l-78 -88q87 -147 87 -320q0 -86 -23 -153.5t-64 -139.5l78 -86l-96 -108l-82 88q-125 -103 -271 -103t-282 103l-80 -88l-96 108l80 86q-88 141 -88 308zM243 889q-81 -106 -81 -268
t81 -271.5t213 -109.5q131 0 212.5 109t81.5 267t-78 268.5t-213 110.5t-216 -106z" />
    <glyph glyph-name="yen" unicode="&#xa5;" horiz-adv-x="909" 
d="M135 408h234v135h-234v137h182l-321 741h199l266 -657l274 657h180l-327 -741h186v-137h-237v-135h237v-138h-237v-270h-168v270h-234v138z" />
    <glyph glyph-name="brokenbar" unicode="&#xa6;" horiz-adv-x="512" 
d="M319 358v-716h-126v716h126zM319 1382v-716h-126v716h126z" />
    <glyph glyph-name="section" unicode="&#xa7;" horiz-adv-x="909" 
d="M727 1298q-159 54 -205 54q-80 0 -135 -33.5t-55 -91.5q0 -57 33.5 -88t83 -53.5t108.5 -42t142 -67.5t83 -175q0 -98 -61.5 -169t-149.5 -100v-4q94 -21 159 -84.5t65 -154.5q0 -90 -32 -149.5t-85 -97.5t-122 -55.5t-167 -17.5t-248 41v176q14 -4 39 -13t82.5 -27.5
t117.5 -18.5q107 0 164.5 35t57.5 96t-36 94t-91 55.5t-117.5 42t-153.5 69.5t-91 184t84 188.5t127 75.5q-82 39 -133.5 92t-51.5 141q0 157 105.5 233t239.5 76q133 0 243 -39v-172zM614 765q0 42 -20.5 69.5t-48 44t-58 25.5t-49.5 18q-88 -29 -122.5 -81.5t-34.5 -95.5
t13 -68.5t35.5 -42t52 -27.5t62.5 -25q50 13 89.5 45t60 64t20.5 74z" />
    <glyph glyph-name="dieresis" unicode="&#xa8;" horiz-adv-x="569" 
d="M201 1208h-193v213h193v-213zM561 1208h-192v213h192v-213z" />
    <glyph glyph-name="copyright" unicode="&#xa9;" horiz-adv-x="1638" 
d="M821.5 1509q159.5 0 299 -60t243.5 -163.5t164.5 -244t60.5 -301.5t-60.5 -301t-164.5 -244.5t-243.5 -165t-299 -60.5t-300 60.5t-246 165t-166 245t-60.5 300.5t60.5 301t166 244.5t246 163.5t300 60zM821 1395q-137 0 -257 -51.5t-209 -140.5t-140 -209t-51 -256
t51 -254.5t140 -208t209 -140.5t326 -51t395.5 193t189.5 462q0 135 -51.5 255t-139.5 209t-207 140.5t-256 51.5zM506 868q0 351 307 351q162 0 227.5 -64.5t61.5 -198.5h-144q0 100 -38 124t-110 24q-71 0 -116 -38t-45 -140v-291q0 -173 64.5 -192t101.5 -19q90 0 123 47
t35 119h143q4 -123 -66.5 -202t-215.5 -79q-84 0 -149 15t-122 92t-57 246v206z" />
    <glyph glyph-name="ordfeminine" unicode="&#xaa;" horiz-adv-x="614" 
d="M555 1024q0 -68 14 -147h-147v90h-4q-45 -103 -178 -103q-106 0 -154.5 56.5t-48.5 148.5q0 213 383 201q0 77 -22.5 116t-89.5 39q-66 0 -99 -26.5t-29 -75.5h-129q4 104 73 145t177 41q254 0 254 -186v-299zM172 1063q0 -47 22.5 -81t61.5 -34q79 0 125 52t39 186
q-117 0 -160 -12.5t-65.5 -38t-22.5 -72.5z" />
    <glyph glyph-name="guillemotleft" unicode="&#xab;" horiz-adv-x="909" 
d="M63 553l191 401h156l-162 -401l160 -395h-160zM416 553l190 401h156l-162 -401l160 -395h-160z" />
    <glyph glyph-name="logicalnot" unicode="&#xac;" 
d="M809 659h-721v127h848v-546h-127v419z" />
    <glyph glyph-name="registered" unicode="&#xae;" horiz-adv-x="1638" 
d="M821.5 1509q159.5 0 299 -60t243.5 -163.5t164.5 -244t60.5 -301.5t-60.5 -301t-164.5 -244.5t-243.5 -165t-299 -60.5t-300 60.5t-246 165t-166 245t-60.5 300.5t60.5 301t166 244.5t246 163.5t300 60zM821 1395q-137 0 -257 -51.5t-209 -140.5t-140 -209t-51 -256
t51 -254.5t140 -208t209 -140.5t326 -51t395.5 193t189.5 462q0 135 -51.5 255t-139.5 209t-207 140.5t-256 51.5zM676 295h-144v887h353q118 0 183 -65t65 -149t-53.5 -140t-139.5 -72v-4q84 -8 118 -53.5t36 -140.5t15 -169t21 -94h-141q-27 47 -28 126t-7 141t-30 95
t-105 33h-143v-395zM989 931q0 152 -129 152h-184v-278h184q66 0 97.5 42t31.5 84z" />
    <glyph glyph-name="macron" unicode="&#xaf;" horiz-adv-x="569" 
d="M567 1360v-115h-565v115h565z" />
    <glyph glyph-name="macron" unicode="&#x2c9;" horiz-adv-x="569" 
d="M567 1360v-115h-565v115h565z" />
    <glyph glyph-name="degree" unicode="&#xb0;" horiz-adv-x="819" 
d="M717 1136.5q0 -63.5 -24.5 -119.5t-66.5 -97t-97.5 -66t-119 -25t-120 25t-97 66t-65.5 97t-25 119.5t24 119t65.5 97.5t98 66.5t120 24.5t119 -24.5t97.5 -66.5t66.5 -97.5t24.5 -119zM536.5 1263.5q-53.5 53.5 -128 53.5t-127 -52.5t-52.5 -128.5t52.5 -128t127.5 -52
t128 53t53 127t-53.5 127.5z" />
    <glyph glyph-name="plusminus" unicode="&#xb1;" 
d="M449 1034h126v-332h361v-127h-361v-331h-126v331h-361v127h361v332zM88 127h848v-127h-848v127z" />
    <glyph glyph-name="twosuperior" unicode="&#xb2;" horiz-adv-x="544" 
d="M27 578v108q100 127 167.5 208t125 159.5t57.5 173.5q0 43 -27.5 72.5t-83.5 29.5t-74 -42t-16 -87h-145q-8 102 49.5 173t185.5 71q129 0 191.5 -53.5t62.5 -174.5t-60.5 -202.5t-122 -152t-142.5 -175.5h329v-108h-497z" />
    <glyph glyph-name="threesuperior" unicode="&#xb3;" horiz-adv-x="544" 
d="M373 1214q0 127 -117 127q-70 0 -90.5 -39.5t-18.5 -91.5h-129q-8 111 50.5 172.5t182.5 61.5t194.5 -54.5t70.5 -166.5q0 -145 -86 -170t-106 -29v-4q213 -25 213 -215q0 -125 -81.5 -185.5t-195.5 -60.5t-164.5 33t-71 76t-21.5 85t-1 60h131q0 -65 25 -102t100 -37
q135 0 135 133q0 96 -45 132t-153 36v98q84 -6 131 31t47 110z" />
    <glyph glyph-name="acute" unicode="&#xb4;" horiz-adv-x="569" 
d="M528 1479l-268 -289h-137l182 289h223z" />
    <glyph glyph-name="mu" unicode="&#xb5;" 
d="M868 215q0 -98 11 -215h-179v125h-6q-41 -72 -110.5 -108.5t-151.5 -36.5q-27 0 -63.5 7t-46.5 13v-391h-168v1425h168v-717q0 -94 43 -151t133 -57q129 0 165.5 87t36.5 152v686h168v-819z" />
    <glyph glyph-name="mu" unicode="&#x3bc;" 
d="M868 215q0 -98 11 -215h-179v125h-6q-41 -72 -110.5 -108.5t-151.5 -36.5q-27 0 -63.5 7t-46.5 13v-391h-168v1425h168v-717q0 -94 43 -151t133 -57q129 0 165.5 87t36.5 152v686h168v-819z" />
    <glyph glyph-name="paragraph" unicode="&#xb6;" horiz-adv-x="901" 
d="M338 692q-129 0 -225.5 116.5t-96.5 272.5q0 249 126 323.5t249 74.5h402v-1727h-144v1589h-168v-1589h-143v940z" />
    <glyph glyph-name="periodcentered" unicode="&#xb7;" horiz-adv-x="454" 
d="M324 412h-193v213h193v-213z" />
    <glyph glyph-name="periodcentered" unicode="&#x2219;" horiz-adv-x="454" 
d="M324 412h-193v213h193v-213z" />
    <glyph glyph-name="cedilla" unicode="&#xb8;" horiz-adv-x="569" 
d="M217 -365q129 0 129 82q0 43 -30 63.5t-60 20.5t-50 -6t-38 -10l-35 39l129 176h98l-94 -123l4 -4q36 12 62 12q70 0 120 -40t50 -104q0 -106 -72.5 -154t-162.5 -48t-206 45l35 82q91 -31 121 -31z" />
    <glyph glyph-name="onesuperior" unicode="&#xb9;" horiz-adv-x="544" 
d="M385 1430v-852h-143v714l-140 -86v121q43 14 156 103h127z" />
    <glyph glyph-name="ordmasculine" unicode="&#xba;" horiz-adv-x="614" 
d="M111.5 926q-70.5 62 -70.5 236q0 175 53.5 261t246.5 86t212.5 -132.5t19.5 -216.5t-21.5 -147t-70 -106t-174 -43t-196 62zM307 948q82 0 106.5 57.5t24.5 168.5q0 110 -8 150t-25.5 62.5t-42 30.5t-74 8t-81 -41.5t-31.5 -140.5q0 -98 5 -150.5t24.5 -98.5t101.5 -46z
" />
    <glyph glyph-name="guillemotright" unicode="&#xbb;" horiz-adv-x="909" 
d="M150 158l159 395l-162 401h156l191 -401l-185 -395h-159zM502 158l160 395l-162 401h155l191 -401l-184 -395h-160z" />
    <glyph glyph-name="onequarter" unicode="&#xbc;" horiz-adv-x="1363" 
d="M719 201v104l262 547h203v-537h108v-114h-108v-201h-144v201h-321zM133 -55l895 1534h127l-893 -1534h-129zM385 1430v-852h-143v714l-140 -86v121q43 14 156 103h127zM1040 315v410h-4l-186 -410h190z" />
    <glyph glyph-name="onehalf" unicode="&#xbd;" horiz-adv-x="1363" 
d="M788 0v109q100 127 168 207.5t125.5 159.5t57.5 173q0 43 -28 73t-84 30t-73.5 -42t-15.5 -87h-145q-8 102 49.5 172.5t186.5 70.5q128 0 190.5 -53t62.5 -174t-60.5 -203t-122 -152.5t-143.5 -174.5h330v-109h-498zM72 -55l895 1534h127l-893 -1534h-129zM324 1430v-852
h-144v714l-139 -86v121q28 10 156 103h127z" />
    <glyph glyph-name="threequarters" unicode="&#xbe;" horiz-adv-x="1363" 
d="M750 201v104l262 547h202v-537h109v-114h-109v-201h-143v201h-321zM383 1214q0 127 -117 127q-70 0 -90 -39.5t-18 -91.5h-129q-8 111 50 172.5t182 61.5t194.5 -54.5t70.5 -166.5q0 -145 -86 -170t-106 -29v-4q213 -25 213 -215q0 -125 -81.5 -185.5t-195.5 -60.5
t-164.5 33t-71 76t-21.5 85t-1 60h131q0 -101 41 -120t78 -19q82 0 111.5 37t29.5 115t-45 113.5t-153 35.5v98q84 -6 131 31t47 110zM205 -55l895 1534h127l-893 -1534h-129zM1071 315v410h-4l-186 -410h190z" />
    <glyph glyph-name="questiondown" unicode="&#xbf;" horiz-adv-x="909" 
d="M545 479q0 -68 -39 -126t-85 -122.5t-85 -139.5t-39 -162t27.5 -132t56.5 -63.5t77 -18.5q87 0 115.5 78.5t28.5 206.5h193q13 -303 -120.5 -362.5t-236.5 -59.5q-160 0 -247 93t-87 249q0 201 112.5 340t136.5 181t24 81v191h168v-234zM557 874h-192v213h192v-213z" />
    <glyph glyph-name="Agrave" unicode="&#xc0;" horiz-adv-x="1251" 
d="M500 1479h239l482 -1479h-211l-107 352h-571l-111 -352h-190zM614 1305h-4l-231 -789h473zM606 1923l182 -289h-137l-268 289h223z" />
    <glyph glyph-name="Aacute" unicode="&#xc1;" horiz-adv-x="1251" 
d="M500 1479h239l482 -1479h-211l-107 352h-571l-111 -352h-190zM614 1305h-4l-231 -789h473zM870 1923l-268 -289h-137l182 289h223z" />
    <glyph glyph-name="Acircumflex" unicode="&#xc2;" horiz-adv-x="1251" 
d="M500 1479h239l482 -1479h-211l-107 352h-571l-111 -352h-190zM614 1305h-4l-231 -789h473zM627 1827l-135 -193h-164l204 289h189l205 -289h-164z" />
    <glyph glyph-name="Atilde" unicode="&#xc3;" horiz-adv-x="1251" 
d="M500 1479h239l482 -1479h-211l-107 352h-571l-111 -352h-190zM614 1305h-4l-231 -789h473zM769 1642q-51 0 -123 28t-108 39t-71 11t-62.5 -28.5t-31.5 -63.5h-94q10 94 60 157.5t153 63.5q67 1 153 -37t121 -38q96 0 104 92h105q-9 -92 -65.5 -158t-140.5 -66z" />
    <glyph glyph-name="Adieresis" unicode="&#xc4;" horiz-adv-x="1251" 
d="M500 1479h239l482 -1479h-211l-107 352h-571l-111 -352h-190zM614 1305h-4l-231 -789h473zM543 1653h-193v213h193v-213zM903 1653h-192v213h192v-213z" />
    <glyph glyph-name="Aring" unicode="&#xc5;" horiz-adv-x="1251" 
d="M500 1479h239l482 -1479h-211l-107 352h-571l-111 -352h-190zM614 1305h-4l-231 -789h473zM627 1612q-43 0 -80 16.5t-65.5 44t-45 65.5t-16.5 81t16.5 80.5t44 65.5t65.5 44t81 16t80.5 -16t65.5 -45t44.5 -65.5t16.5 -79.5t-16.5 -81t-44.5 -65.5t-65.5 -44
t-80.5 -16.5zM750 1820q0 50 -37 86t-87 36t-86 -36t-36 -86t36 -87t86 -37t87 37t37 87z" />
    <glyph glyph-name="AE" unicode="&#xc6;" horiz-adv-x="1705" 
d="M1597 1479v-164h-608l64 -475h528v-164h-500l72 -512h465v-164h-627l-51 352h-561l-150 -352h-198l649 1479h917zM805 1327h-4l-346 -811h463z" />
    <glyph glyph-name="Ccedilla" unicode="&#xc7;" horiz-adv-x="1138" 
d="M502 -365q129 0 129 82q0 43 -30.5 63.5t-60.5 20.5t-49.5 -6t-37.5 -10l-35 39l108 149q-160 10 -268 130.5t-108 451.5v418q0 430 183 483t292 53q219 0 310 -111.5t77 -326.5h-195q6 201 -70.5 240t-137.5 39q-100 0 -158.5 -43t-65.5 -72q-2 -6 -22.5 -45.5
t-20.5 -261.5v-396q0 -351 104 -378t142 -27q97 0 174.5 62.5t77.5 246.5h194q8 -467 -411 -467l-72 -92l4 -4q36 12 61 12q70 0 120 -40t50 -104q0 -106 -105 -176.5t-335 19.5l35 82q91 -31 121 -31z" />
    <glyph glyph-name="Egrave" unicode="&#xc8;" 
d="M166 0v1479h762v-164h-574v-475h533v-164h-533v-512h586v-164h-774zM492 1923l182 -289h-137l-269 289h224z" />
    <glyph glyph-name="Eacute" unicode="&#xc9;" 
d="M166 0v1479h762v-164h-574v-475h533v-164h-533v-512h586v-164h-774zM756 1923l-269 -289h-137l182 289h224z" />
    <glyph glyph-name="Ecircumflex" unicode="&#xca;" 
d="M166 0v1479h762v-164h-574v-475h533v-164h-533v-512h586v-164h-774zM512 1827l-135 -193h-164l205 289h188l205 -289h-164z" />
    <glyph glyph-name="Edieresis" unicode="&#xcb;" 
d="M166 0v1479h762v-164h-574v-475h533v-164h-533v-512h586v-164h-774zM788 1653h-192v213h192v-213zM428 1653h-192v213h192v-213z" />
    <glyph glyph-name="Igrave" unicode="&#xcc;" horiz-adv-x="569" 
d="M379 0h-189v1479h189v-1479zM264 1923l182 -289h-137l-268 289h223z" />
    <glyph glyph-name="Iacute" unicode="&#xcd;" horiz-adv-x="569" 
d="M379 0h-189v1479h189v-1479zM528 1923l-268 -289h-137l182 289h223z" />
    <glyph glyph-name="Icircumflex" unicode="&#xce;" horiz-adv-x="569" 
d="M379 0h-189v1479h189v-1479zM285 1827l-135 -193h-164l204 289h189l205 -289h-164z" />
    <glyph glyph-name="Idieresis" unicode="&#xcf;" horiz-adv-x="569" 
d="M379 0h-189v1479h189v-1479zM561 1653h-192v213h192v-213zM201 1653h-193v213h193v-213z" />
    <glyph glyph-name="Eth" unicode="&#xd0;" horiz-adv-x="1251" 
d="M170 750h-143v114h143v615h455q293 0 397 -226q65 -133 65 -419t-21.5 -428t-68.5 -216q-59 -96 -175.5 -143t-311.5 -47h-340v750zM358 164h179q201 0 279.5 95t78.5 347v299q0 223 -70.5 316.5t-218.5 93.5h-248v-451h310v-114h-310v-586z" />
    <glyph glyph-name="Ntilde" unicode="&#xd1;" horiz-adv-x="1366" 
d="M1190 1479v-1479h-258l-584 1282h-4v-1282h-168v1479h266l576 -1266h4v1266h168zM826 1642q-42 0 -78.5 12.5t-75.5 27.5t-76 26.5t-72 11.5t-62.5 -28.5t-31.5 -63.5h-94q10 94 60 157.5t136 63.5q86 1 170 -37t121 -38q96 0 105 92h104q-9 -92 -65.5 -158t-140.5 -66z
" />
    <glyph glyph-name="Ograve" unicode="&#xd2;" horiz-adv-x="1251" 
d="M624.5 -31q-235.5 0 -350 132t-114.5 440v485q0 221 114.5 352t350 131t350.5 -131t115 -352v-485q0 -307 -115 -439.5t-350.5 -132.5zM662 127q105 0 170 87t65 318v500q0 201 -90 260.5t-182.5 59.5t-148.5 -37t-90 -101.5t-34 -181.5v-500q0 -333 102.5 -369
t207.5 -36zM606 1923l182 -289h-137l-268 289h223z" />
    <glyph glyph-name="Oacute" unicode="&#xd3;" horiz-adv-x="1251" 
d="M624.5 -31q-235.5 0 -350 132t-114.5 440v485q0 221 114.5 352t350 131t350.5 -131t115 -352v-485q0 -307 -115 -439.5t-350.5 -132.5zM662 127q105 0 170 87t65 318v500q0 201 -90 260.5t-182.5 59.5t-148.5 -37t-90 -101.5t-34 -181.5v-500q0 -333 102.5 -369
t207.5 -36zM870 1923l-268 -289h-137l182 289h223z" />
    <glyph glyph-name="Ocircumflex" unicode="&#xd4;" horiz-adv-x="1251" 
d="M624.5 -31q-235.5 0 -350 132t-114.5 440v485q0 221 114.5 352t350 131t350.5 -131t115 -352v-485q0 -307 -115 -439.5t-350.5 -132.5zM662 127q105 0 170 87t65 318v500q0 201 -90 260.5t-182.5 59.5t-148.5 -37t-90 -101.5t-34 -181.5v-500q0 -333 102.5 -369
t207.5 -36zM627 1827l-135 -193h-164l204 289h189l205 -289h-164z" />
    <glyph glyph-name="Otilde" unicode="&#xd5;" horiz-adv-x="1251" 
d="M624.5 -31q-235.5 0 -350 132t-114.5 440v485q0 221 114.5 352t350 131t350.5 -131t115 -352v-485q0 -307 -115 -439.5t-350.5 -132.5zM662 127q105 0 170 87t65 318v500q0 201 -90 260.5t-182.5 59.5t-148.5 -37t-90 -101.5t-34 -181.5v-500q0 -333 102.5 -369
t207.5 -36zM769 1642q-51 0 -123 28t-108 39t-71 11t-62.5 -28.5t-31.5 -63.5h-94q10 94 60 157.5t153 63.5q67 1 153 -37t121 -38q96 0 104 92h105q-9 -92 -65.5 -158t-140.5 -66z" />
    <glyph glyph-name="Odieresis" unicode="&#xd6;" horiz-adv-x="1251" 
d="M624.5 -31q-235.5 0 -350 132t-114.5 440v485q0 221 114.5 352t350 131t350.5 -131t115 -352v-485q0 -307 -115 -439.5t-350.5 -132.5zM662 127q105 0 170 87t65 318v500q0 201 -90 260.5t-182.5 59.5t-148.5 -37t-90 -101.5t-34 -181.5v-500q0 -333 102.5 -369
t207.5 -36zM543 1653h-193v213h193v-213zM903 1653h-192v213h192v-213z" />
    <glyph glyph-name="multiply" unicode="&#xd7;" 
d="M88 852l90 90l334 -334l334 334l90 -90l-334 -334l334 -334l-90 -90l-334 334l-334 -334l-90 90l334 334z" />
    <glyph glyph-name="Oslash" unicode="&#xd8;" horiz-adv-x="1251" 
d="M630 1509q241 0 359 -145l105 162l71 -47l-127 -195q51 -102 52 -258v-485q0 -307 -115 -439.5t-351 -132.5t-354 142l-116 -179l-70 48l137 208q-61 125 -61 353v485q0 221 114.5 352t355.5 131zM872 1186q-65 166 -239 166t-227.5 -101.5t-53.5 -218.5v-500
q0 -73 8 -131zM614 127q79 0 181 35.5t102 369.5v500q0 23 -2 33l-510 -778q31 -90 90.5 -125t138.5 -35z" />
    <glyph glyph-name="Ugrave" unicode="&#xd9;" horiz-adv-x="1251" 
d="M160 1479h188v-947q0 -333 104.5 -369t210.5 -36t172 88t66 317v947h189v-938q0 -307 -115 -439.5t-350.5 -132.5t-350 132t-114.5 440v938zM606 1923l182 -289h-137l-268 289h223z" />
    <glyph glyph-name="Uacute" unicode="&#xda;" horiz-adv-x="1251" 
d="M160 1479h188v-947q0 -333 104.5 -369t210.5 -36t172 88t66 317v947h189v-938q0 -307 -115 -439.5t-350.5 -132.5t-350 132t-114.5 440v938zM870 1923l-268 -289h-137l182 289h223z" />
    <glyph glyph-name="Ucircumflex" unicode="&#xdb;" horiz-adv-x="1251" 
d="M160 1479h188v-947q0 -333 104.5 -369t210.5 -36t172 88t66 317v947h189v-938q0 -307 -115 -439.5t-350.5 -132.5t-350 132t-114.5 440v938zM627 1827l-135 -193h-164l204 289h189l205 -289h-164z" />
    <glyph glyph-name="Udieresis" unicode="&#xdc;" horiz-adv-x="1251" 
d="M160 1479h188v-947q0 -333 104.5 -369t210.5 -36t172 88t66 317v947h189v-938q0 -307 -115 -439.5t-350.5 -132.5t-350 132t-114.5 440v938zM903 1653h-192v213h192v-213zM543 1653h-193v213h193v-213z" />
    <glyph glyph-name="Yacute" unicode="&#xdd;" 
d="M602 0h-188v563l-398 916h211l289 -715l299 715h191l-404 -916v-563zM756 1923l-269 -289h-137l182 289h224z" />
    <glyph glyph-name="Thorn" unicode="&#xde;" horiz-adv-x="1138" 
d="M190 1479h189v-250h250q281 0 346 -145.5t65 -274.5q0 -227 -130.5 -317.5t-282.5 -90.5h-248v-401h-189v1479zM379 565h207q162 0 212 83t50 168q0 145 -72 197t-137 52h-260v-500z" />
    <glyph glyph-name="germandbls" unicode="&#xdf;" horiz-adv-x="1138" 
d="M709 115q141 0 141 188q0 102 -62.5 158.5t-106.5 87.5t-106.5 89.5t-62.5 174.5q0 49 33 94t73 90t72.5 91.5t32.5 95.5q0 94 -50.5 141t-136.5 47q-145 0 -185 -68.5t-40 -185.5v-1118h-168v1186q0 171 129.5 247t255.5 76q268 0 325.5 -110.5t57.5 -192.5t-33.5 -132
t-63.5 -80t-51.5 -49t-48 -49.5t-26.5 -70.5q0 -39 24.5 -68.5t62.5 -60t144.5 -113t106.5 -266.5q0 -128 -40 -195t-102 -106t-186 -39t-208 62.5t-84 216.5h176q-4 -63 28.5 -102t98.5 -39z" />
    <glyph glyph-name="agrave" unicode="&#xe0;" 
d="M844 246q0 -128 20 -246h-184v150h-4q-39 -90 -100.5 -130t-151.5 -40q-162 0 -226.5 89t-64.5 228t51.5 205.5t151 105t340.5 33.5q5 136 -15 186t-56.5 75.5t-112.5 25.5t-118 -51.5t-34 -133.5h-182q6 174 95 243t255 69q269 0 302.5 -123t33.5 -189v-497zM301 310
q0 -79 39 -136t130 -57t154 86.5t52 310.5q-59 0 -126 -2t-122 -20.5t-91 -60.5t-36 -121zM492 1479l182 -289h-137l-269 289h224z" />
    <glyph glyph-name="aacute" unicode="&#xe1;" 
d="M844 246q0 -128 20 -246h-184v150h-4q-39 -90 -100.5 -130t-151.5 -40q-162 0 -226.5 89t-64.5 228t51.5 205.5t151 105t340.5 33.5q5 136 -15 186t-56.5 75.5t-112.5 25.5t-118 -51.5t-34 -133.5h-182q6 174 95 243t255 69q269 0 302.5 -123t33.5 -189v-497zM301 310
q0 -79 39 -136t130 -57t154 86.5t52 310.5q-59 0 -126 -2t-122 -20.5t-91 -60.5t-36 -121zM756 1479l-269 -289h-137l182 289h224z" />
    <glyph glyph-name="acircumflex" unicode="&#xe2;" 
d="M844 246q0 -128 20 -246h-184v150h-4q-39 -90 -100.5 -130t-151.5 -40q-162 0 -226.5 89t-64.5 228t51.5 205.5t151 105t340.5 33.5q5 136 -15 186t-56.5 75.5t-112.5 25.5t-118 -51.5t-34 -133.5h-182q6 174 95 243t255 69q269 0 302.5 -123t33.5 -189v-497zM301 310
q0 -79 39 -136t130 -57t154 86.5t52 310.5q-59 0 -126 -2t-122 -20.5t-91 -60.5t-36 -121zM512 1382l-135 -192h-164l205 289h188l205 -289h-164z" />
    <glyph glyph-name="atilde" unicode="&#xe3;" 
d="M844 246q0 -128 20 -246h-184v150h-4q-39 -90 -100.5 -130t-151.5 -40q-162 0 -226.5 89t-64.5 228t51.5 205.5t151 105t340.5 33.5q5 136 -15 186t-56.5 75.5t-112.5 25.5t-118 -51.5t-34 -133.5h-182q6 174 95 243t255 69q269 0 302.5 -123t33.5 -189v-497zM301 310
q0 -79 39 -136t130 -57t154 86.5t52 310.5q-59 0 -126 -2t-122 -20.5t-91 -60.5t-36 -121zM654 1198q-42 0 -78.5 12.5t-75.5 27.5t-76 26.5t-72 11.5t-62.5 -28.5t-31.5 -63.5h-94q10 94 60 157.5t153 63.5q63 0 153 -38t121 -38q96 0 105 92h104q-9 -92 -65.5 -157.5
t-140.5 -65.5z" />
    <glyph glyph-name="adieresis" unicode="&#xe4;" 
d="M844 246q0 -128 20 -246h-184v150h-4q-39 -90 -100.5 -130t-151.5 -40q-162 0 -226.5 89t-64.5 228t51.5 205.5t151 105t340.5 33.5q5 136 -15 186t-56.5 75.5t-112.5 25.5t-118 -51.5t-34 -133.5h-182q6 174 95 243t255 69q269 0 302.5 -123t33.5 -189v-497zM301 310
q0 -79 39 -136t130 -57t154 86.5t52 310.5q-59 0 -126 -2t-122 -20.5t-91 -60.5t-36 -121zM428 1208h-192v213h192v-213zM788 1208h-192v213h192v-213z" />
    <glyph glyph-name="aring" unicode="&#xe5;" 
d="M844 246q0 -128 20 -246h-184v150h-4q-39 -90 -100.5 -130t-151.5 -40q-162 0 -226.5 89t-64.5 228t51.5 205.5t151 105t340.5 33.5q5 136 -15 186t-56.5 75.5t-112.5 25.5t-118 -51.5t-34 -133.5h-182q6 174 95 243t255 69q269 0 302.5 -123t33.5 -189v-497zM512 1167
q-43 0 -80 16.5t-65.5 44t-45 65.5t-16.5 81t16.5 81t44 65.5t65.5 44t81 16.5t81 -16.5t65.5 -45t44 -65.5t16.5 -80t-16.5 -81t-44 -65.5t-65.5 -44t-81 -16.5zM301 310q0 -79 39 -136t130 -57t154 86.5t52 310.5q-59 0 -126 -2t-122 -20.5t-91 -60.5t-36 -121zM635 1375
q0 50 -37 86t-87 36t-86 -36t-36 -86t36 -87t86 -37t87 37t37 87z" />
    <glyph glyph-name="ae" unicode="&#xe6;" horiz-adv-x="1593" 
d="M1088 117q91 0 133.5 60.5t46.5 154.5h182q0 -149 -76 -250.5t-309 -101.5q-162 0 -222.5 68.5t-74.5 117.5q-45 -102 -134 -144t-192 -42q-147 0 -226 81t-79 219t52.5 203.5t134.5 93t181 31.5t193 10v105q0 102 -43 153.5t-139 51.5t-138 -51.5t-34 -133.5h-182
q6 174 95 243t259 69t222.5 -50.5t68.5 -99.5h4q32 111 126.5 130.5t145.5 19.5t123 -12.5t171.5 -101.5t78.5 -449h-579q2 -55 4 -120t19.5 -122t57 -95t130.5 -38zM324 289q0 -172 161 -172q99 0 161.5 76t51.5 299q-59 0 -125.5 -1.5t-157.5 -29.5t-91 -172zM1094 928
q-46 0 -79.5 -9.5t-85.5 -63t-52 -237.5h401q5 129 -25 190.5t-71.5 90.5t-87.5 29z" />
    <glyph glyph-name="ccedilla" unicode="&#xe7;" 
d="M445 -365q128 0 128 82q0 43 -29.5 63.5t-59.5 20.5t-50 -6t-39 -10l-35 39l117 158q-157 13 -241 125t-84 395q0 113 11 214t74.5 220t307.5 119q156 0 240.5 -89t76.5 -264h-174q4 116 -40 166t-98 50q-112 0 -167 -72t-55 -304q0 -231 45 -328t172 -97
q49 0 100.5 52.5t48.5 174.5h176q4 -183 -89.5 -267t-207.5 -95l-79 -105l4 -4q36 12 61 12q70 0 120 -40t50 -104q0 -106 -72.5 -154t-162.5 -48t-205 45l35 82q91 -31 121 -31z" />
    <glyph glyph-name="egrave" unicode="&#xe8;" 
d="M311 463q0 -293 80 -319.5t126 -26.5q84 0 131.5 56t51.5 140h185q-2 -174 -99.5 -253.5t-261.5 -79.5q-82 0 -237.5 37t-155.5 485q0 271 74 412t319 141q213 0 291 -118.5t78 -385.5v-88h-582zM715 590q0 294 -81 316t-124 22q-95 0 -147 -72.5t-52 -265.5h404z
M492 1479l182 -289h-137l-269 289h224z" />
    <glyph glyph-name="eacute" unicode="&#xe9;" 
d="M311 463q0 -293 80 -319.5t126 -26.5q84 0 131.5 56t51.5 140h185q-2 -174 -99.5 -253.5t-261.5 -79.5q-82 0 -237.5 37t-155.5 485q0 271 74 412t319 141q213 0 291 -118.5t78 -385.5v-88h-582zM715 590q0 294 -81 316t-124 22q-95 0 -147 -72.5t-52 -265.5h404z
M756 1479l-269 -289h-137l182 289h224z" />
    <glyph glyph-name="ecircumflex" unicode="&#xea;" 
d="M311 463q0 -293 80 -319.5t126 -26.5q84 0 131.5 56t51.5 140h185q-2 -174 -99.5 -253.5t-261.5 -79.5q-82 0 -237.5 37t-155.5 485q0 271 74 412t319 141q213 0 291 -118.5t78 -385.5v-88h-582zM715 590q0 294 -81 316t-124 22q-95 0 -147 -72.5t-52 -265.5h404z
M512 1382l-135 -192h-164l205 289h188l205 -289h-164z" />
    <glyph glyph-name="edieresis" unicode="&#xeb;" 
d="M311 463q0 -293 80 -319.5t126 -26.5q84 0 131.5 56t51.5 140h185q-2 -174 -99.5 -253.5t-261.5 -79.5q-82 0 -237.5 37t-155.5 485q0 271 74 412t319 141q213 0 291 -118.5t78 -385.5v-88h-582zM715 590q0 294 -81 316t-124 22q-95 0 -147 -72.5t-52 -265.5h404z
M428 1208h-192v213h192v-213zM788 1208h-192v213h192v-213z" />
    <glyph glyph-name="igrave" unicode="&#xec;" horiz-adv-x="454" 
d="M143 0v1034h168v-1034h-168zM207 1479l182 -289h-137l-268 289h223z" />
    <glyph glyph-name="iacute" unicode="&#xed;" horiz-adv-x="454" 
d="M143 0v1034h168v-1034h-168zM471 1479l-268 -289h-137l182 289h223z" />
    <glyph glyph-name="icircumflex" unicode="&#xee;" horiz-adv-x="454" 
d="M143 0v1034h168v-1034h-168zM227 1382l-135 -192h-164l205 289h189l204 -289h-164z" />
    <glyph glyph-name="idieresis" unicode="&#xef;" horiz-adv-x="454" 
d="M143 0v1034h168v-1034h-168zM504 1208h-193v213h193v-213zM143 1208h-192v213h192v-213z" />
    <glyph glyph-name="eth" unicode="&#xf0;" 
d="M905 490q0 -437 -155.5 -473.5t-237.5 -36.5t-237.5 37t-155.5 475q0 111 22 326.5t346 215.5q66 0 105 -18.5t78 -57.5l4 5q-47 138 -207 309l-180 -105l-64 62l170 100q-73 64 -172 117l113 96q102 -51 198 -131l191 113l61 -68l-186 -108q160 -160 233.5 -350
t73.5 -508zM729 575q0 268 -84 296t-162.5 28t-133 -71.5t-54.5 -295.5q0 -225 44.5 -321t172.5 -96t172.5 96t44.5 364z" />
    <glyph glyph-name="ntilde" unicode="&#xf1;" 
d="M147 819q0 82 -10 215h178v-133h9q49 88 112.5 121t154.5 33q168 0 227 -87t59 -251v-717h-168v717q0 145 -64.5 173t-126.5 28q-203 0 -203 -306v-612h-168v819zM654 1198q-42 0 -78.5 12.5t-75.5 27.5t-76 26.5t-72 11.5t-62.5 -28.5t-31.5 -63.5h-94q10 94 60 157.5
t153 63.5q63 0 153 -38t121 -38q96 0 105 92h104q-9 -92 -65.5 -157.5t-140.5 -65.5z" />
    <glyph glyph-name="ograve" unicode="&#xf2;" 
d="M512 -20q-82 0 -237.5 37t-155.5 485q0 113 11 214t51 176t118 119t213 44t213 -44t118 -119t51 -176.5t11 -243.5t-30.5 -244.5t-84 -158t-125 -72.5t-153.5 -17zM512 117q127 0 172 97t45 370t-84 303.5t-162 30.5t-133 -73t-55 -304q0 -230 45 -327t172 -97zM492 1479
l182 -289h-137l-269 289h224z" />
    <glyph glyph-name="oacute" unicode="&#xf3;" 
d="M512 -20q-82 0 -237.5 37t-155.5 485q0 113 11 214t51 176t118 119t213 44t213 -44t118 -119t51 -176.5t11 -243.5t-30.5 -244.5t-84 -158t-125 -72.5t-153.5 -17zM512 117q127 0 172 97t45 370t-84 303.5t-162 30.5t-133 -73t-55 -304q0 -230 45 -327t172 -97zM756 1479
l-269 -289h-137l182 289h224z" />
    <glyph glyph-name="ocircumflex" unicode="&#xf4;" 
d="M512 -20q-82 0 -237.5 37t-155.5 485q0 113 11 214t51 176t118 119t213 44t213 -44t118 -119t51 -176.5t11 -243.5t-30.5 -244.5t-84 -158t-125 -72.5t-153.5 -17zM512 117q127 0 172 97t45 370t-84 303.5t-162 30.5t-133 -73t-55 -304q0 -230 45 -327t172 -97zM512 1382
l-135 -192h-164l205 289h188l205 -289h-164z" />
    <glyph glyph-name="otilde" unicode="&#xf5;" 
d="M512 -20q-82 0 -237.5 37t-155.5 485q0 113 11 214t51 176t118 119t213 44t213 -44t118 -119t51 -176.5t11 -243.5t-30.5 -244.5t-84 -158t-125 -72.5t-153.5 -17zM512 117q127 0 172 97t45 370t-84 303.5t-162 30.5t-133 -73t-55 -304q0 -230 45 -327t172 -97zM654 1198
q-42 0 -78.5 12.5t-75.5 27.5t-76 26.5t-72 11.5t-62.5 -28.5t-31.5 -63.5h-94q10 94 60 157.5t153 63.5q63 0 153 -38t121 -38q96 0 105 92h104q-9 -92 -65.5 -157.5t-140.5 -65.5z" />
    <glyph glyph-name="odieresis" unicode="&#xf6;" 
d="M512 -20q-82 0 -237.5 37t-155.5 485q0 113 11 214t51 176t118 119t213 44t213 -44t118 -119t51 -176.5t11 -243.5t-30.5 -244.5t-84 -158t-125 -72.5t-153.5 -17zM512 117q127 0 172 97t45 370t-84 303.5t-162 30.5t-133 -73t-55 -304q0 -230 45 -327t172 -97zM428 1208
h-192v213h192v-213zM788 1208h-192v213h192v-213z" />
    <glyph glyph-name="divide" unicode="&#xf7;" 
d="M88 582h848v-127h-848v127zM608 0h-192v213h192v-213zM608 823h-192v213h192v-213z" />
    <glyph glyph-name="oslash" unicode="&#xf8;" 
d="M533 1055q156 0 253 -88l99 137l65 -41l-114 -160q45 -76 57 -178.5t12 -248.5t-30.5 -248.5t-84 -158t-125 -72.5t-153.5 -17t-152.5 17t-123.5 71l-99 -140l-63 45l114 160q-69 120 -69 369q0 113 11 214t51 176t118 119t234 44zM295 586q0 -185 18 -279l371 518
q-51 93 -165 93t-169 -73.5t-55 -258.5zM729 573q0 104 -14 162l-373 -522q47 -96 172 -96t170 97t45 359z" />
    <glyph glyph-name="ugrave" unicode="&#xf9;" 
d="M432 -20q-278 0 -278 266v788h168v-717q0 -94 43 -151t133 -57q129 0 165.5 87t36.5 152v686h168v-819q0 -98 11 -215h-179v125h-6q-41 -72 -110.5 -108.5t-151.5 -36.5zM492 1479l182 -289h-137l-269 289h224z" />
    <glyph glyph-name="uacute" unicode="&#xfa;" 
d="M432 -20q-278 0 -278 266v788h168v-717q0 -94 43 -151t133 -57q129 0 165.5 87t36.5 152v686h168v-819q0 -98 11 -215h-179v125h-6q-41 -72 -110.5 -108.5t-151.5 -36.5zM756 1479l-269 -289h-137l182 289h224z" />
    <glyph glyph-name="ucircumflex" unicode="&#xfb;" 
d="M432 -20q-278 0 -278 266v788h168v-717q0 -94 43 -151t133 -57q129 0 165.5 87t36.5 152v686h168v-819q0 -98 11 -215h-179v125h-6q-41 -72 -110.5 -108.5t-151.5 -36.5zM512 1382l-135 -192h-164l205 289h188l205 -289h-164z" />
    <glyph glyph-name="udieresis" unicode="&#xfc;" 
d="M432 -20q-278 0 -278 266v788h168v-717q0 -94 43 -151t133 -57q129 0 165.5 87t36.5 152v686h168v-819q0 -98 11 -215h-179v125h-6q-41 -72 -110.5 -108.5t-151.5 -36.5zM788 1208h-192v213h192v-213zM428 1208h-192v213h192v-213z" />
    <glyph glyph-name="yacute" unicode="&#xfd;" horiz-adv-x="909" 
d="M459 193h4l248 841h182l-469 -1425h-174l117 391l-351 1034h195zM698 1479l-268 -289h-137l182 289h223z" />
    <glyph glyph-name="thorn" unicode="&#xfe;" 
d="M330 104v-495h-168v1870h168v-568h4q86 144 220 144t203.5 -50.5t102.5 -130t39 -179t6 -232.5t-28.5 -235.5t-90 -175t-212.5 -72.5t-238 124h-6zM330 555v-133q0 -172 55 -238.5t134 -66.5q135 0 172.5 102t37.5 243q0 262 -39.5 359t-162.5 97t-160 -102.5t-37 -260.5
z" />
    <glyph glyph-name="ydieresis" unicode="&#xff;" horiz-adv-x="909" 
d="M459 193h4l248 841h182l-469 -1425h-174l117 391l-351 1034h195zM731 1208h-192v213h192v-213zM371 1208h-193v213h193v-213z" />
    <glyph glyph-name="dotlessi" unicode="&#x131;" horiz-adv-x="454" 
d="M143 0v1034h168v-1034h-168z" />
    <glyph glyph-name="Lslash" unicode="&#x141;" horiz-adv-x="909" 
d="M166 1479h188v-512l154 88l45 -80l-199 -115v-696h543v-164h-731v752l-146 -84l-45 80l191 110v621z" />
    <glyph glyph-name="lslash" unicode="&#x142;" horiz-adv-x="454" 
d="M311 0h-168v770l-161 -94l-41 72l202 116v615h168v-518l162 94l41 -72l-203 -117v-866z" />
    <glyph glyph-name="OE" unicode="&#x152;" horiz-adv-x="1705" 
d="M1624 1315h-573v-475h532v-164h-532v-512h585v-164h-977q-272 0 -392 128.5t-120 422.5v344q0 457 173.5 520.5t283.5 63.5h1020v-164zM862 1315h-270q-133 0 -192.5 -89t-59.5 -339v-328q0 -194 57.5 -294.5t210.5 -100.5h254v1151z" />
    <glyph glyph-name="oe" unicode="&#x153;" horiz-adv-x="1593" 
d="M1112 -20q-255 0 -313 163q-51 -96 -123 -129.5t-159 -33.5t-242.5 37t-155.5 485q0 113 11 214t74.5 220t307.5 119q175 0 231 -60.5t64 -111.5h4q35 92 109.5 132t188.5 40q216 0 294 -118.5t78 -385.5v-88h-582q0 -293 80 -319.5t126 -26.5q84 0 131.5 56t51.5 140
h185q-2 -174 -99.5 -253.5t-261.5 -79.5zM512 117q127 0 172 97t45 370t-84 303.5t-162 30.5t-133 -73t-55 -304q0 -230 45 -327t172 -97zM1303 590q0 206 -49.5 267t-150.5 61q-100 0 -152 -66.5t-52 -261.5h404z" />
    <glyph glyph-name="Scaron" unicode="&#x160;" horiz-adv-x="1138" 
d="M311 440v-43q0 -140 73.5 -202t174.5 -62q186 0 225 87t39 161t-49 129t-122.5 100t-159.5 86t-160 96.5t-123 130.5t-49 179q0 198 120.5 302.5t318.5 104.5t305.5 -103t99.5 -329h-197q2 121 -46 195t-192 74t-180.5 -79t-36.5 -150t49.5 -125t123 -98t159.5 -86
t160 -97.5t123 -134t49 -245.5t-127 -264.5t-327 -99.5t-326.5 103.5t-110.5 369.5h186zM868 1923l-204 -289h-189l-205 289h164l135 -192l136 192h163z" />
    <glyph glyph-name="scaron" unicode="&#x161;" horiz-adv-x="909" 
d="M716 57q-97 -77 -264 -77t-263.5 78.5t-92.5 256.5h191q0 -79 31.5 -138.5t140.5 -59.5q76 0 127 39t51 118q0 45 -38 79t-95.5 63.5t-220 101.5t-162.5 253t124 232.5t213 51.5q166 0 262.5 -73.5t84.5 -219.5h-187q2 82 -39.5 124t-115.5 42t-120 -36t-46 -92t38 -89
t95 -61.5t125 -57.5t163 -95.5t95 -214.5t-97 -225zM754 1479l-205 -289h-189l-204 289h163l136 -193l135 193h164z" />
    <glyph glyph-name="Ydieresis" unicode="&#x178;" 
d="M602 0h-188v563l-398 916h211l289 -715l299 715h191l-404 -916v-563zM788 1653h-192v213h192v-213zM428 1653h-192v213h192v-213z" />
    <glyph glyph-name="Zcaron" unicode="&#x17d;" 
d="M973 164v-164h-924v213l717 1098v4h-692v164h882v-189l-733 -1126h750zM811 1923l-205 -289h-188l-205 289h164l135 -192l135 192h164z" />
    <glyph glyph-name="zcaron" unicode="&#x17e;" horiz-adv-x="796" 
d="M725 137v-137h-653v158l450 735v4h-428v137h617v-153l-457 -744h471zM698 1479l-204 -289h-189l-205 289h164l135 -193l136 193h163z" />
    <glyph glyph-name="florin" unicode="&#x192;" horiz-adv-x="909" 
d="M755 1307q-34 0 -65 -20.5t-56.5 -63t-31.5 -97.5l-33 -198h201l-18 -127h-201l-137 -901q-25 -164 -117.5 -209.5t-226.5 -40.5l22 137q98 -7 125.5 42.5t42.5 160.5l125 811h-186l22 127h182l27 164q19 140 63 208t102 106t155 38q23 0 45 -3t45 -5l-23 -138
q-28 9 -62 9z" />
    <glyph glyph-name="circumflex" unicode="&#x2c6;" horiz-adv-x="569" 
d="M285 1382l-135 -192h-164l204 289h189l205 -289h-164z" />
    <glyph glyph-name="caron" unicode="&#x2c7;" horiz-adv-x="569" 
d="M584 1479l-205 -289h-189l-204 289h164l135 -193l135 193h164z" />
    <glyph glyph-name="breve" unicode="&#x2d8;" horiz-adv-x="569" 
d="M282 1317q182 0 218 162h100q-16 -131 -95 -204t-217 -73t-223 63.5t-96 213.5h101q30 -162 212 -162z" />
    <glyph glyph-name="dotaccent" unicode="&#x2d9;" horiz-adv-x="569" 
d="M381 1208h-193v213h193v-213z" />
    <glyph glyph-name="ring" unicode="&#x2da;" horiz-adv-x="569" 
d="M285 1167q-43 0 -80 16.5t-65.5 44t-45 65.5t-16.5 81t16.5 81t44 65.5t65.5 44t81 16.5t80.5 -16.5t65.5 -45t44.5 -65.5t16.5 -80t-16.5 -81t-44.5 -65.5t-65.5 -44t-80.5 -16.5zM408 1375q0 50 -37 86t-87 36t-86 -36t-36 -86t36 -87t86 -37t87 37t37 87z" />
    <glyph glyph-name="ogonek" unicode="&#x2db;" horiz-adv-x="569" 
d="M233 -179q1 -97 105 -97q49 0 164 40v-110q-127 -45 -191 -45q-112 0 -178.5 46.5t-66.5 128.5t78 136.5t169 79.5l121 4v-4q-100 -35 -150.5 -83t-50.5 -96z" />
    <glyph glyph-name="tilde" unicode="&#x2dc;" horiz-adv-x="569" 
d="M427 1198q-51 0 -123 28q-71 28 -107.5 39t-71.5 11t-62.5 -28.5t-31.5 -63.5h-94q10 94 60 157.5t153 63.5q61 0 152 -38t122 -38q96 0 104 92h105q-9 -92 -65.5 -157.5t-140.5 -65.5z" />
    <glyph glyph-name="hungarumlaut" unicode="&#x2dd;" horiz-adv-x="909" 
d="M487 1479l-268 -289h-137l182 289h223zM862 1479l-268 -289h-137l182 289h223z" />
    <glyph glyph-name="endash" unicode="&#x2013;" 
d="M0 612h1024v-114h-1024v114z" />
    <glyph glyph-name="emdash" unicode="&#x2014;" horiz-adv-x="2048" 
d="M0 612h2048v-114h-2048v114z" />
    <glyph glyph-name="quoteleft" unicode="&#x2018;" horiz-adv-x="454" 
d="M293 1071h-221l168 408h141z" />
    <glyph glyph-name="quoteright" unicode="&#x2019;" horiz-adv-x="454" 
d="M160 1479h221l-168 -408h-141z" />
    <glyph glyph-name="quotesinglbase" unicode="&#x201a;" horiz-adv-x="454" 
d="M160 180h221l-168 -407h-141z" />
    <glyph glyph-name="quotedblleft" unicode="&#x201c;" horiz-adv-x="909" 
d="M350 1069h-221l168 408h141zM692 1069h-221l168 408h141z" />
    <glyph glyph-name="quotedblright" unicode="&#x201d;" horiz-adv-x="909" 
d="M217 1479h221l-168 -408h-141zM559 1479h221l-168 -408h-141z" />
    <glyph glyph-name="quotedblbase" unicode="&#x201e;" horiz-adv-x="909" 
d="M559 180h221l-168 -407h-141zM217 180h221l-168 -407h-141z" />
    <glyph glyph-name="dagger" unicode="&#x2020;" horiz-adv-x="909" 
d="M371 1034h-291v137h291v308h168v-308h290v-137h-290v-1034h-168v1034z" />
    <glyph glyph-name="daggerdbl" unicode="&#x2021;" horiz-adv-x="909" 
d="M82 1034v137h287v308h168v-308h288v-137h-288v-590h288v-137h-288v-307h-168v307h-287v137h287v590h-287z" />
    <glyph glyph-name="bullet" unicode="&#x2022;" horiz-adv-x="681" 
d="M655 739.5q0 -63.5 -25.5 -121t-68.5 -100.5t-100.5 -67.5t-121 -24.5t-120.5 24.5t-100 67.5t-67.5 100.5t-24.5 121t24.5 121t67.5 100.5t100 68.5t120.5 25.5t121 -25.5t100.5 -68.5t68.5 -100.5t25.5 -121z" />
    <glyph glyph-name="ellipsis" unicode="&#x2026;" horiz-adv-x="2048" 
d="M438 0h-192v213h192v-213zM1802 0h-192v213h192v-213zM1120 0h-192v213h192v-213z" />
    <glyph glyph-name="perthousand" unicode="&#x2030;" horiz-adv-x="1820" 
d="M283 1503q86 0 133 -28.5t70.5 -76.5t27.5 -111.5t4 -130.5t-5 -133.5t-28.5 -119.5t-70.5 -87t-163.5 -34t-160 98.5t-43.5 274.5q0 68 4 131.5t27.5 111.5t71 76.5t133.5 28.5zM1536 690q86 0 133 -28.5t70.5 -76.5t28 -111.5t4.5 -130.5t-5.5 -133.5t-29 -119.5
t-70.5 -87t-163 -34t-160 99.5t-44 273.5q0 68 4.5 131.5t28 111.5t70.5 76.5t133 28.5zM940 690q86 0 133 -28.5t70.5 -76.5t28 -111.5t4.5 -130.5t-5.5 -133.5t-29 -119.5t-70.5 -87t-163 -34t-159.5 98.5t-43.5 274.5q0 68 4 131.5t27.5 111.5t70.5 76.5t133 28.5z
M893 1556h129l-703 -1626h-124zM939 84q46 0 68.5 35t31 83t7 97t-1.5 80t-1 64.5t-10 63.5t-30.5 49t-62.5 19t-62.5 -19t-30.5 -49t-10 -63.5t-1 -64.5t-1 -80t7 -97t29.5 -83t67.5 -35zM1535 84q46 0 68.5 35t30.5 83t7 97t-1 80t-1 64.5t-10 63.5t-30.5 49t-62.5 19
t-62.5 -19t-30.5 -49t-10 -63.5t-1 -64.5t-1 -80t7 -97t29.5 -83t67.5 -35zM282 897q46 0 68.5 35t30.5 83t7 97t-1 80t-1 64.5t-10 63.5t-30.5 49.5t-62.5 19.5t-62.5 -19.5t-31 -49.5t-10.5 -63.5t-1 -64.5t-1 -80t7.5 -97t30 -83t67.5 -35z" />
    <glyph glyph-name="guilsinglleft" unicode="&#x2039;" horiz-adv-x="454" 
d="M49 553l191 401h155l-162 -401l160 -395h-160z" />
    <glyph glyph-name="guilsinglright" unicode="&#x203a;" horiz-adv-x="454" 
d="M61 158l160 395l-162 401h156l191 -401l-185 -395h-160z" />
    <glyph glyph-name="fraction" unicode="&#x2044;" horiz-adv-x="342" 
d="M-340 -61l895 1534h127l-893 -1534h-129z" />
    <glyph glyph-name="fraction" unicode="&#x2215;" horiz-adv-x="342" 
d="M-340 -61l895 1534h127l-893 -1534h-129z" />
    <glyph glyph-name="trademark" unicode="&#x2122;" horiz-adv-x="1689" 
d="M1618 592h-143v698h-5l-245 -698h-117l-234 698h-4v-698h-143v887h227l222 -660h4l215 660h223v-887zM625 1479v-115h-244v-772h-143v772h-244v115h631z" />
    <glyph glyph-name="minus" unicode="&#x2212;" 
d="M88 582h848v-127h-848v127z" />
    <glyph glyph-name="fi" unicode="&#xfb01;" 
d="M474 1485q54 0 81 -6v-121q-178 10 -193.5 -53.5t-15.5 -94.5v-176h209v-127h-209v-907h-168v907h-160v127h160v201q0 142 80.5 196t215.5 54zM866 0h-168v1034h168v-1034zM688 1479h189v-181h-189v181z" />
    <glyph glyph-name="fl" unicode="&#xfb02;" 
d="M474 1485q54 0 81 -6v-121q-178 10 -193.5 -53.5t-15.5 -94.5v-176h209v-127h-209v-907h-168v907h-160v127h160v201q0 142 80.5 196t215.5 54zM881 0h-168v1479h168v-1479z" />
    <glyph glyph-name="nonbreakingspace" horiz-adv-x="454" 
 />
    </font>
</defs>
</svg>
